<svg width="61" height="61" viewBox="0 0 61 61" fill="none" xmlns="http://www.w3.org/2000/svg">
<path d="M54.4984 0.837402H7.35557C3.80647 0.837402 0.927002 3.71687 0.927002 7.26597V54.4088C0.927002 57.9579 3.80647 60.8374 7.35557 60.8374H54.4984C58.0475 60.8374 60.927 57.9579 60.927 54.4088V7.26597C60.927 3.71687 58.0475 0.837402 54.4984 0.837402ZM38.0654 52.2258C36.9404 52.4267 36.5252 51.7303 36.5252 51.1544C36.5252 50.4312 36.552 46.7347 36.552 43.7481C36.552 41.6588 35.8556 40.3329 35.0386 39.6365C39.994 39.0874 45.2172 38.4044 45.2172 29.8463C45.2172 27.4088 44.3466 26.1901 42.927 24.6231C43.1547 24.0472 43.9181 21.6767 42.6993 18.5963C40.8377 18.0204 36.5788 20.9937 36.5788 20.9937C34.8109 20.4981 32.8958 20.2437 31.0074 20.2437C29.119 20.2437 27.2038 20.4981 25.4359 20.9937C25.4359 20.9937 21.177 18.0204 19.3154 18.5963C18.0966 21.6633 18.8466 24.0338 19.0877 24.6231C17.6681 26.1901 16.9984 27.4088 16.9984 29.8463C16.9984 38.3642 21.994 39.0874 26.9493 39.6365C26.3065 40.2124 25.7306 41.2035 25.5297 42.6231C24.2574 43.199 21.0029 44.1901 19.0609 40.7615C17.8422 38.6454 15.6458 38.4713 15.6458 38.4713C13.4761 38.4445 15.4984 39.8374 15.4984 39.8374C16.9449 40.507 17.9627 43.0785 17.9627 43.0785C19.2618 47.0562 25.4761 45.7169 25.4761 45.7169C25.4761 47.5785 25.5029 50.6053 25.5029 51.1544C25.5029 51.7303 25.1011 52.4267 23.9627 52.2258C15.1234 49.266 8.93593 40.8553 8.93593 31.0249C8.93593 18.7303 18.3377 9.39544 30.6324 9.39544C42.927 9.39544 52.8913 18.7303 52.8913 31.0249C52.9047 40.8553 46.9047 49.2794 38.0654 52.2258ZM24.927 44.0428C24.6725 44.0963 24.4315 43.9892 24.4047 43.8151C24.3779 43.6142 24.552 43.4401 24.8065 43.3865C25.0609 43.3597 25.302 43.4669 25.3288 43.641C25.369 43.8151 25.1949 43.9892 24.927 44.0428ZM23.6547 43.9222C23.6547 44.0963 23.4538 44.2437 23.1859 44.2437C22.8913 44.2704 22.6904 44.1231 22.6904 43.9222C22.6904 43.7481 22.8913 43.6008 23.1591 43.6008C23.4136 43.574 23.6547 43.7213 23.6547 43.9222ZM21.8199 43.7749C21.7663 43.949 21.4984 44.0294 21.2708 43.949C21.0163 43.8954 20.8422 43.6945 20.8958 43.5204C20.9493 43.3463 21.2172 43.266 21.4449 43.3195C21.7127 43.3999 21.8868 43.6008 21.8199 43.7749ZM20.1725 43.0517C20.052 43.199 19.7975 43.1722 19.5966 42.9713C19.3958 42.7972 19.3422 42.5428 19.4761 42.4222C19.5966 42.2749 19.8511 42.3017 20.052 42.5026C20.2261 42.6767 20.2931 42.9445 20.1725 43.0517ZM18.9538 41.8329C18.8333 41.9133 18.6056 41.8329 18.4583 41.632C18.3109 41.4312 18.3109 41.2035 18.4583 41.1097C18.6056 40.9892 18.8333 41.0829 18.9538 41.2838C19.1011 41.4847 19.1011 41.7258 18.9538 41.8329ZM18.0833 40.5338C17.9627 40.6544 17.7618 40.5874 17.6145 40.4535C17.4672 40.2794 17.4404 40.0785 17.5609 39.9847C17.6815 39.8642 17.8824 39.9312 18.0297 40.0651C18.177 40.2392 18.2038 40.4401 18.0833 40.5338ZM17.1859 39.5428C17.1324 39.6633 16.9583 39.6901 16.8109 39.5963C16.6368 39.516 16.5565 39.3686 16.61 39.2481C16.6636 39.1678 16.8109 39.1276 16.985 39.1945C17.1591 39.2883 17.2395 39.4356 17.1859 39.5428Z" fill="#701CDA"/>
</svg>
