<svg width="46" height="61" viewBox="0 0 46 61" fill="none" xmlns="http://www.w3.org/2000/svg">
<path d="M27.177 16.7749V0.837402H3.7395C2.18091 0.837402 0.927002 2.09131 0.927002 3.6499V58.0249C0.927002 59.5835 2.18091 60.8374 3.7395 60.8374H43.1145C44.6731 60.8374 45.927 59.5835 45.927 58.0249V19.5874H29.9895C28.4426 19.5874 27.177 18.3218 27.177 16.7749ZM36.136 41.5437L24.8368 52.7585C24.0575 53.5331 22.7989 53.5331 22.0196 52.7585L10.7204 41.5437C9.53091 40.3636 10.3653 38.3374 12.0387 38.3374H19.677V28.9624C19.677 27.9265 20.5161 27.0874 21.552 27.0874H25.302C26.3379 27.0874 27.177 27.9265 27.177 28.9624V38.3374H34.8153C36.4887 38.3374 37.3231 40.3636 36.136 41.5437ZM45.1067 13.1421L33.634 1.65771C33.1067 1.13037 32.3918 0.837402 31.6418 0.837402H30.927V15.8374H45.927V15.1226C45.927 14.3843 45.634 13.6694 45.1067 13.1421Z" fill="#701CDA"/>
</svg>
