<svg width="61" height="61" viewBox="0 0 61 61" fill="none" xmlns="http://www.w3.org/2000/svg">
<path d="M56.4828 0.837402H5.35617C2.91117 0.837402 0.927002 2.7749 0.927002 5.16074V56.5082C0.927002 58.8974 2.91117 60.8374 5.35617 60.8374H56.4828C58.9295 60.8374 60.927 58.8974 60.927 56.5082V5.16074C60.927 2.7749 58.9295 0.837402 56.4828 0.837402ZM18.722 51.9657H9.81867V23.3332H18.722V51.9657ZM14.2703 19.4182C11.4178 19.4182 9.112 17.1066 9.112 14.2566C9.112 11.4107 11.4178 9.09907 14.2703 9.09907C17.1162 9.09907 19.4278 11.4107 19.4278 14.2566C19.4278 17.1066 17.1162 19.4182 14.2703 19.4182ZM52.052 51.9657H43.1628V38.0424C43.1628 34.7207 43.0978 30.4499 38.537 30.4499C33.9053 30.4499 33.1995 34.0674 33.1995 37.8016V51.9666H24.3037V23.3332H32.8412V27.2432H32.9628C34.1512 24.9932 37.0545 22.6191 41.3845 22.6191C50.3895 22.6191 52.0528 28.5474 52.0528 36.2599L52.052 51.9657Z" fill="#701CDA"/>
</svg>
