<svg width="351" height="50" viewBox="0 0 351 50" fill="none" xmlns="http://www.w3.org/2000/svg">
<path d="M0.7 4.6C1.53333 4.63333 2.65 4.66667 4.05 4.7C5.48333 4.73333 6.9 4.75 8.3 4.75C9.9 4.75 11.45 4.73333 12.95 4.7C14.45 4.66667 15.5167 4.65 16.15 4.65C19.25 4.65 21.8167 5 23.85 5.7C25.9167 6.36667 27.45 7.35 28.45 8.65C29.4833 9.95 30 11.5167 30 13.35C30 14.4833 29.7667 15.6333 29.3 16.8C28.8333 17.9333 28.0333 19 26.9 20C25.8 20.9667 24.2833 21.75 22.35 22.35C20.4167 22.9167 17.9833 23.2 15.05 23.2H10.25V22.2H14.55C16.5167 22.2 18 21.8333 19 21.1C20.0333 20.3333 20.7333 19.3333 21.1 18.1C21.5 16.8333 21.7 15.4333 21.7 13.9C21.7 11.2667 21.2333 9.23333 20.3 7.8C19.3667 6.33333 17.7667 5.6 15.5 5.6C14.2 5.6 13.35 5.88333 12.95 6.45C12.5833 7.01667 12.4 8.16666 12.4 9.9V34.7C12.4 35.9 12.4833 36.8 12.65 37.4C12.85 38 13.2167 38.4 13.75 38.6C14.2833 38.8 15.0833 38.9333 16.15 39V40C15.25 39.9333 14.1167 39.9 12.75 39.9C11.3833 39.8667 10 39.85 8.6 39.85C7 39.85 5.48333 39.8667 4.05 39.9C2.65 39.9 1.53333 39.9333 0.7 40V39C1.76667 38.9333 2.56667 38.8 3.1 38.6C3.63333 38.4 3.98333 38 4.15 37.4C4.35 36.8 4.45 35.9 4.45 34.7V9.9C4.45 8.66666 4.35 7.76666 4.15 7.2C3.98333 6.6 3.61667 6.2 3.05 6C2.51667 5.76667 1.73333 5.63333 0.7 5.6V4.6ZM10.15 22.35C11.5833 22.3833 12.8167 22.45 13.85 22.55C14.9167 22.65 15.85 22.75 16.65 22.85C17.45 22.9167 18.1667 22.9667 18.8 23C21.8333 23.2667 24.0667 23.9167 25.5 24.95C26.9667 25.9833 27.9167 27.5333 28.35 29.6L29.5 34.75C29.8 36.0833 30.1167 37.0167 30.45 37.55C30.7833 38.0833 31.2667 38.35 31.9 38.35C32.3333 38.3167 32.6833 38.2167 32.95 38.05C33.25 37.85 33.5667 37.5667 33.9 37.2L34.6 37.8C33.7 38.8333 32.7333 39.5667 31.7 40C30.6667 40.4667 29.4167 40.7 27.95 40.7C26.15 40.7 24.6667 40.3167 23.5 39.55C22.3333 38.7833 21.5667 37.3667 21.2 35.3L20.3 30.3C20.0667 28.9 19.7833 27.6833 19.45 26.65C19.1167 25.5833 18.65 24.75 18.05 24.15C17.4833 23.5167 16.6833 23.2 15.65 23.2H10.25L10.15 22.35ZM45.4691 40.35C43.9691 40.35 42.7191 40.0667 41.7191 39.5C40.7191 38.9333 39.9858 38.1833 39.5191 37.25C39.0525 36.2833 38.8191 35.2333 38.8191 34.1C38.8191 32.6667 39.1358 31.5 39.7691 30.6C40.4358 29.7 41.2858 28.9667 42.3191 28.4C43.3525 27.8333 44.4358 27.3667 45.5691 27C46.7358 26.6333 47.8358 26.2833 48.8691 25.95C49.9358 25.5833 50.7858 25.1667 51.4191 24.7C52.0858 24.2 52.4191 23.5667 52.4191 22.8V18.9C52.4191 18.0333 52.2691 17.2667 51.9691 16.6C51.7025 15.9 51.2691 15.3667 50.6691 15C50.1025 14.6333 49.3525 14.45 48.4191 14.45C47.7525 14.45 47.0858 14.55 46.4191 14.75C45.7525 14.9167 45.2025 15.2167 44.7691 15.65C45.7025 15.9833 46.4191 16.5 46.9191 17.2C47.4525 17.8667 47.7191 18.6333 47.7191 19.5C47.7191 20.6333 47.3191 21.5333 46.5191 22.2C45.7525 22.8667 44.8358 23.2 43.7691 23.2C42.5691 23.2 41.6525 22.8333 41.0191 22.1C40.4191 21.3333 40.1191 20.4167 40.1191 19.35C40.1191 18.3833 40.3525 17.5833 40.8191 16.95C41.3191 16.3167 42.0025 15.7167 42.8691 15.15C43.8025 14.6167 44.9191 14.2 46.2191 13.9C47.5525 13.6 48.9858 13.45 50.5191 13.45C52.0525 13.45 53.4358 13.6167 54.6691 13.95C55.9025 14.25 56.9358 14.8167 57.7691 15.65C58.5358 16.4167 59.0358 17.3667 59.2691 18.5C59.5025 19.6 59.6191 21 59.6191 22.7V36.3C59.6191 37.1333 59.7025 37.7167 59.8691 38.05C60.0358 38.35 60.3191 38.5 60.7191 38.5C61.0191 38.5 61.3025 38.4167 61.5691 38.25C61.8691 38.0833 62.1858 37.8833 62.5191 37.65L63.0191 38.5C62.3191 39.1 61.5025 39.5667 60.5691 39.9C59.6691 40.2 58.6525 40.35 57.5191 40.35C56.2858 40.35 55.3025 40.1833 54.5691 39.85C53.8358 39.4833 53.3025 39 52.9691 38.4C52.6691 37.8 52.5191 37.1 52.5191 36.3C51.7191 37.5667 50.7525 38.5667 49.6191 39.3C48.4858 40 47.1025 40.35 45.4691 40.35ZM49.0191 37.15C49.6858 37.15 50.2858 37 50.8191 36.7C51.3858 36.3667 51.9191 35.8333 52.4191 35.1V24.85C52.1191 25.35 51.7025 25.8 51.1691 26.2C50.6358 26.6 50.0691 27.0167 49.4691 27.45C48.8691 27.85 48.2858 28.3 47.7191 28.8C47.1858 29.3 46.7525 29.9167 46.4191 30.65C46.0858 31.3833 45.9191 32.2667 45.9191 33.3C45.9191 34.6 46.2025 35.5667 46.7691 36.2C47.3358 36.8333 48.0858 37.15 49.0191 37.15ZM81.398 0.899997C82.5647 0.899997 83.5814 1.05 84.448 1.35C85.3147 1.65 86.0814 2.05 86.748 2.55C87.2147 2.91667 87.6147 3.43333 87.948 4.1C88.2814 4.73333 88.448 5.46666 88.448 6.3C88.448 7.2 88.1147 8 87.448 8.7C86.8147 9.4 85.9647 9.75 84.898 9.75C83.798 9.75 82.8814 9.43333 82.148 8.8C81.448 8.16667 81.098 7.3 81.098 6.2C81.098 5.33333 81.348 4.56666 81.848 3.9C82.348 3.23333 83.0814 2.76666 84.048 2.5C83.948 2.3 83.748 2.13333 83.448 2C83.148 1.86666 82.748 1.8 82.248 1.8C81.5814 1.8 81.0314 1.91666 80.598 2.15C80.1647 2.38333 79.8147 2.7 79.548 3.1C79.1814 3.6 78.9314 4.33333 78.798 5.3C78.6647 6.23333 78.598 7.68333 78.598 9.65V14.2H83.948V15.2H78.598V34.85C78.598 36.4833 79.0147 37.5833 79.848 38.15C80.6814 38.6833 81.8314 38.95 83.298 38.95V40C82.4314 39.9667 81.2147 39.9333 79.648 39.9C78.0814 39.8333 76.4314 39.8 74.698 39.8C73.4314 39.8 72.1814 39.8333 70.948 39.9C69.748 39.9333 68.8314 39.9667 68.198 40V38.95C69.3647 38.95 70.1814 38.7 70.648 38.2C71.148 37.7 71.398 36.75 71.398 35.35V15.2H67.998V14.2H71.398C71.398 12.2333 71.498 10.6 71.698 9.3C71.898 7.96666 72.2314 6.83333 72.698 5.9C73.1647 4.96666 73.7814 4.13333 74.548 3.4C75.2814 2.7 76.248 2.11667 77.448 1.65C78.6814 1.15 79.998 0.899997 81.398 0.899997ZM96.4262 40.35C94.9262 40.35 93.6762 40.0667 92.6762 39.5C91.6762 38.9333 90.9428 38.1833 90.4762 37.25C90.0095 36.2833 89.7762 35.2333 89.7762 34.1C89.7762 32.6667 90.0928 31.5 90.7262 30.6C91.3928 29.7 92.2428 28.9667 93.2762 28.4C94.3095 27.8333 95.3928 27.3667 96.5262 27C97.6928 26.6333 98.7928 26.2833 99.8262 25.95C100.893 25.5833 101.743 25.1667 102.376 24.7C103.043 24.2 103.376 23.5667 103.376 22.8V18.9C103.376 18.0333 103.226 17.2667 102.926 16.6C102.66 15.9 102.226 15.3667 101.626 15C101.06 14.6333 100.31 14.45 99.3762 14.45C98.7095 14.45 98.0428 14.55 97.3762 14.75C96.7095 14.9167 96.1595 15.2167 95.7262 15.65C96.6595 15.9833 97.3762 16.5 97.8762 17.2C98.4095 17.8667 98.6762 18.6333 98.6762 19.5C98.6762 20.6333 98.2762 21.5333 97.4762 22.2C96.7095 22.8667 95.7928 23.2 94.7262 23.2C93.5262 23.2 92.6095 22.8333 91.9762 22.1C91.3762 21.3333 91.0762 20.4167 91.0762 19.35C91.0762 18.3833 91.3095 17.5833 91.7762 16.95C92.2762 16.3167 92.9595 15.7167 93.8262 15.15C94.7595 14.6167 95.8762 14.2 97.1762 13.9C98.5095 13.6 99.9428 13.45 101.476 13.45C103.01 13.45 104.393 13.6167 105.626 13.95C106.86 14.25 107.893 14.8167 108.726 15.65C109.493 16.4167 109.993 17.3667 110.226 18.5C110.46 19.6 110.576 21 110.576 22.7V36.3C110.576 37.1333 110.66 37.7167 110.826 38.05C110.993 38.35 111.276 38.5 111.676 38.5C111.976 38.5 112.26 38.4167 112.526 38.25C112.826 38.0833 113.143 37.8833 113.476 37.65L113.976 38.5C113.276 39.1 112.46 39.5667 111.526 39.9C110.626 40.2 109.61 40.35 108.476 40.35C107.243 40.35 106.26 40.1833 105.526 39.85C104.793 39.4833 104.26 39 103.926 38.4C103.626 37.8 103.476 37.1 103.476 36.3C102.676 37.5667 101.71 38.5667 100.576 39.3C99.4428 40 98.0595 40.35 96.4262 40.35ZM99.9762 37.15C100.643 37.15 101.243 37 101.776 36.7C102.343 36.3667 102.876 35.8333 103.376 35.1V24.85C103.076 25.35 102.66 25.8 102.126 26.2C101.593 26.6 101.026 27.0167 100.426 27.45C99.8262 27.85 99.2428 28.3 98.6762 28.8C98.1428 29.3 97.7095 29.9167 97.3762 30.65C97.0428 31.3833 96.8762 32.2667 96.8762 33.3C96.8762 34.6 97.1595 35.5667 97.7262 36.2C98.2928 36.8333 99.0428 37.15 99.9762 37.15ZM132.055 13.45C134.988 13.45 137.288 14.3167 138.955 16.05C140.622 17.7833 141.455 20.6167 141.455 24.55H125.005L124.905 23.6H135.155C135.188 21.9667 135.088 20.4667 134.855 19.1C134.622 17.7 134.255 16.5833 133.755 15.75C133.255 14.9167 132.588 14.5 131.755 14.5C130.588 14.5 129.588 15.2333 128.755 16.7C127.955 18.1667 127.472 20.6 127.305 24L127.455 24.3C127.422 24.7 127.388 25.1167 127.355 25.55C127.355 25.9833 127.355 26.4333 127.355 26.9C127.355 29.2 127.672 31.0667 128.305 32.5C128.972 33.9333 129.805 34.9833 130.805 35.65C131.805 36.2833 132.822 36.6 133.855 36.6C134.555 36.6 135.272 36.5 136.005 36.3C136.772 36.0667 137.538 35.6667 138.305 35.1C139.072 34.5 139.788 33.6667 140.455 32.6L141.355 32.9C140.955 34.1667 140.322 35.4 139.455 36.6C138.588 37.8 137.488 38.7833 136.155 39.55C134.822 40.3167 133.222 40.7 131.355 40.7C129.088 40.7 127.088 40.2167 125.355 39.25C123.622 38.2833 122.255 36.8167 121.255 34.85C120.288 32.8833 119.805 30.3833 119.805 27.35C119.805 24.25 120.322 21.6667 121.355 19.6C122.422 17.5333 123.872 16 125.705 15C127.572 13.9667 129.688 13.45 132.055 13.45ZM158.3 0.849997V35.35C158.3 36.75 158.534 37.7 159 38.2C159.5 38.7 160.334 38.95 161.5 38.95V40C160.867 39.9667 159.917 39.9333 158.65 39.9C157.384 39.8333 156.1 39.8 154.8 39.8C153.5 39.8 152.184 39.8333 150.85 39.9C149.55 39.9333 148.567 39.9667 147.9 40V38.95C149.067 38.95 149.884 38.7 150.35 38.2C150.85 37.7 151.1 36.75 151.1 35.35V6.85C151.1 5.35 150.867 4.25 150.4 3.55C149.967 2.81666 149.134 2.45 147.9 2.45V1.4C148.967 1.5 150 1.55 151 1.55C152.367 1.55 153.667 1.5 154.9 1.4C156.134 1.26667 157.267 1.08333 158.3 0.849997ZM180.448 49.4V48.4C181.781 48.2667 182.914 47.8667 183.848 47.2C184.781 46.5667 185.498 45.4667 185.998 43.9C186.498 42.3333 186.748 40.1333 186.748 37.3V9.9C186.748 8.66666 186.648 7.76666 186.448 7.2C186.281 6.6 185.931 6.2 185.398 6C184.864 5.76667 184.064 5.63333 182.998 5.6V4.6C183.831 4.63333 184.914 4.66667 186.248 4.7C187.614 4.73333 189.048 4.75 190.548 4.75C192.048 4.75 193.498 4.73333 194.898 4.7C196.331 4.66667 197.514 4.63333 198.448 4.6V5.6C197.414 5.63333 196.614 5.76667 196.048 6C195.514 6.2 195.148 6.6 194.948 7.2C194.781 7.76666 194.698 8.66666 194.698 9.9V28.2C194.698 29.5667 194.698 31.05 194.698 32.65C194.698 34.2167 194.631 35.75 194.498 37.25C194.398 38.75 194.181 40.0833 193.848 41.25C193.181 43.55 191.731 45.4833 189.498 47.05C187.298 48.6167 184.281 49.4 180.448 49.4ZM216.733 13.45C219.166 13.45 221.299 13.9 223.133 14.8C224.966 15.7 226.399 17.15 227.433 19.15C228.466 21.15 228.983 23.8 228.983 27.1C228.983 30.4 228.466 33.05 227.433 35.05C226.399 37.0167 224.966 38.45 223.133 39.35C221.299 40.25 219.166 40.7 216.733 40.7C214.366 40.7 212.249 40.25 210.383 39.35C208.549 38.45 207.099 37.0167 206.033 35.05C204.999 33.05 204.483 30.4 204.483 27.1C204.483 23.8 204.999 21.15 206.033 19.15C207.099 17.15 208.549 15.7 210.383 14.8C212.249 13.9 214.366 13.45 216.733 13.45ZM216.733 14.45C215.399 14.45 214.283 15.45 213.383 17.45C212.483 19.4167 212.033 22.6333 212.033 27.1C212.033 31.5667 212.483 34.7833 213.383 36.75C214.283 38.7167 215.399 39.7 216.733 39.7C218.099 39.7 219.216 38.7167 220.083 36.75C220.983 34.7833 221.433 31.5667 221.433 27.1C221.433 22.6333 220.983 19.4167 220.083 17.45C219.216 15.45 218.099 14.45 216.733 14.45ZM253.054 13.45C254.121 13.45 254.988 13.6833 255.654 14.15C256.321 14.5833 256.804 15.15 257.104 15.85C257.438 16.55 257.604 17.2833 257.604 18.05C257.604 19.2833 257.238 20.3 256.504 21.1C255.804 21.8667 254.871 22.25 253.704 22.25C252.538 22.25 251.621 21.9667 250.954 21.4C250.321 20.8 250.004 20.0167 250.004 19.05C250.004 18.1167 250.204 17.35 250.604 16.75C251.038 16.1167 251.571 15.5833 252.204 15.15C251.738 15.0167 251.271 15.0333 250.804 15.2C250.171 15.3 249.571 15.5667 249.004 16C248.438 16.4 247.954 16.9167 247.554 17.55C247.154 18.15 246.838 18.8167 246.604 19.55C246.371 20.25 246.254 20.9333 246.254 21.6V34.85C246.254 36.45 246.638 37.5333 247.404 38.1C248.204 38.6667 249.388 38.95 250.954 38.95V40C250.188 39.9667 249.071 39.9333 247.604 39.9C246.138 39.8333 244.604 39.8 243.004 39.8C241.671 39.8 240.321 39.8333 238.954 39.9C237.588 39.9333 236.554 39.9667 235.854 40V38.95C237.021 38.95 237.838 38.7 238.304 38.2C238.804 37.7 239.054 36.75 239.054 35.35V19.6C239.054 18.1 238.821 17 238.354 16.3C237.921 15.5667 237.088 15.2 235.854 15.2V14.15C236.921 14.25 237.954 14.3 238.954 14.3C240.354 14.3 241.654 14.25 242.854 14.15C244.088 14.0167 245.221 13.8333 246.254 13.6V18.25C246.654 17.35 247.188 16.5333 247.854 15.8C248.521 15.0667 249.288 14.5 250.154 14.1C251.021 13.6667 251.988 13.45 253.054 13.45ZM286.861 0.849997V34.5C286.861 36 287.094 37.1167 287.561 37.85C288.027 38.55 288.861 38.9 290.061 38.9V39.95C289.027 39.85 287.994 39.8 286.961 39.8C285.561 39.8 284.244 39.85 283.011 39.95C281.811 40.05 280.694 40.2333 279.661 40.5V6.85C279.661 5.35 279.427 4.25 278.961 3.55C278.527 2.81666 277.694 2.45 276.461 2.45V1.4C277.527 1.5 278.561 1.55 279.561 1.55C280.927 1.55 282.227 1.5 283.461 1.4C284.694 1.26667 285.827 1.08333 286.861 0.849997ZM274.111 13.45C275.577 13.45 276.861 13.7 277.961 14.2C279.094 14.6667 279.977 15.4667 280.611 16.6L280.011 17.15C279.577 16.35 278.994 15.7833 278.261 15.45C277.561 15.0833 276.811 14.9 276.011 14.9C274.311 14.9 272.961 15.9 271.961 17.9C270.961 19.8667 270.477 22.9167 270.511 27.05C270.511 29.8833 270.694 32.15 271.061 33.85C271.461 35.5167 272.011 36.7167 272.711 37.45C273.444 38.1833 274.277 38.55 275.211 38.55C276.344 38.55 277.361 38.1 278.261 37.2C279.161 36.3 279.644 35.0833 279.711 33.55L279.961 35.3C279.461 37.0667 278.644 38.4167 277.511 39.35C276.411 40.25 274.961 40.7 273.161 40.7C271.194 40.7 269.427 40.2167 267.861 39.25C266.327 38.2833 265.127 36.8 264.261 34.8C263.394 32.7667 262.961 30.15 262.961 26.95C262.961 23.9167 263.444 21.4167 264.411 19.45C265.377 17.45 266.694 15.95 268.361 14.95C270.061 13.95 271.977 13.45 274.111 13.45ZM302.793 40.35C301.293 40.35 300.043 40.0667 299.043 39.5C298.043 38.9333 297.31 38.1833 296.843 37.25C296.377 36.2833 296.143 35.2333 296.143 34.1C296.143 32.6667 296.46 31.5 297.093 30.6C297.76 29.7 298.61 28.9667 299.643 28.4C300.677 27.8333 301.76 27.3667 302.893 27C304.06 26.6333 305.16 26.2833 306.193 25.95C307.26 25.5833 308.11 25.1667 308.743 24.7C309.41 24.2 309.743 23.5667 309.743 22.8V18.9C309.743 18.0333 309.593 17.2667 309.293 16.6C309.027 15.9 308.593 15.3667 307.993 15C307.427 14.6333 306.677 14.45 305.743 14.45C305.077 14.45 304.41 14.55 303.743 14.75C303.077 14.9167 302.527 15.2167 302.093 15.65C303.027 15.9833 303.743 16.5 304.243 17.2C304.777 17.8667 305.043 18.6333 305.043 19.5C305.043 20.6333 304.643 21.5333 303.843 22.2C303.077 22.8667 302.16 23.2 301.093 23.2C299.893 23.2 298.977 22.8333 298.343 22.1C297.743 21.3333 297.443 20.4167 297.443 19.35C297.443 18.3833 297.677 17.5833 298.143 16.95C298.643 16.3167 299.327 15.7167 300.193 15.15C301.127 14.6167 302.243 14.2 303.543 13.9C304.877 13.6 306.31 13.45 307.843 13.45C309.377 13.45 310.76 13.6167 311.993 13.95C313.227 14.25 314.26 14.8167 315.093 15.65C315.86 16.4167 316.36 17.3667 316.593 18.5C316.827 19.6 316.943 21 316.943 22.7V36.3C316.943 37.1333 317.027 37.7167 317.193 38.05C317.36 38.35 317.643 38.5 318.043 38.5C318.343 38.5 318.627 38.4167 318.893 38.25C319.193 38.0833 319.51 37.8833 319.843 37.65L320.343 38.5C319.643 39.1 318.827 39.5667 317.893 39.9C316.993 40.2 315.977 40.35 314.843 40.35C313.61 40.35 312.627 40.1833 311.893 39.85C311.16 39.4833 310.627 39 310.293 38.4C309.993 37.8 309.843 37.1 309.843 36.3C309.043 37.5667 308.077 38.5667 306.943 39.3C305.81 40 304.427 40.35 302.793 40.35ZM306.343 37.15C307.01 37.15 307.61 37 308.143 36.7C308.71 36.3667 309.243 35.8333 309.743 35.1V24.85C309.443 25.35 309.027 25.8 308.493 26.2C307.96 26.6 307.393 27.0167 306.793 27.45C306.193 27.85 305.61 28.3 305.043 28.8C304.51 29.3 304.077 29.9167 303.743 30.65C303.41 31.3833 303.243 32.2667 303.243 33.3C303.243 34.6 303.527 35.5667 304.093 36.2C304.66 36.8333 305.41 37.15 306.343 37.15ZM303.943 0.699999C304.977 0.699999 305.843 0.866666 306.543 1.2C307.243 1.53333 307.877 1.91667 308.443 2.35C309.043 2.78333 309.643 3.16667 310.243 3.5C310.877 3.83333 311.593 4 312.393 4C313.093 4 313.76 3.8 314.393 3.4C315.06 2.96666 315.677 2.28333 316.243 1.35L316.943 1.7C316.377 4.16667 315.527 5.95 314.393 7.05C313.293 8.11666 312.077 8.65 310.743 8.65C309.71 8.65 308.827 8.48333 308.093 8.15C307.393 7.81667 306.743 7.43333 306.143 7C305.577 6.53333 304.993 6.13333 304.393 5.8C303.793 5.46667 303.077 5.3 302.243 5.3C301.543 5.3 300.86 5.51667 300.193 5.95C299.56 6.35 298.96 7.03333 298.393 8L297.693 7.65C298.26 5.15 299.11 3.36666 300.243 2.3C301.377 1.23333 302.61 0.699999 303.943 0.699999ZM338.422 13.45C340.856 13.45 342.989 13.9 344.822 14.8C346.656 15.7 348.089 17.15 349.122 19.15C350.156 21.15 350.672 23.8 350.672 27.1C350.672 30.4 350.156 33.05 349.122 35.05C348.089 37.0167 346.656 38.45 344.822 39.35C342.989 40.25 340.856 40.7 338.422 40.7C336.056 40.7 333.939 40.25 332.072 39.35C330.239 38.45 328.789 37.0167 327.722 35.05C326.689 33.05 326.172 30.4 326.172 27.1C326.172 23.8 326.689 21.15 327.722 19.15C328.789 17.15 330.239 15.7 332.072 14.8C333.939 13.9 336.056 13.45 338.422 13.45ZM338.422 14.45C337.089 14.45 335.972 15.45 335.072 17.45C334.172 19.4167 333.722 22.6333 333.722 27.1C333.722 31.5667 334.172 34.7833 335.072 36.75C335.972 38.7167 337.089 39.7 338.422 39.7C339.789 39.7 340.906 38.7167 341.772 36.75C342.672 34.7833 343.122 31.5667 343.122 27.1C343.122 22.6333 342.672 19.4167 341.772 17.45C340.906 15.45 339.789 14.45 338.422 14.45Z" fill="#121212"/>
</svg>
